<svg xmlns="http://www.w3.org/2000/svg" width="1080" height="1080"><defs><clipPath id="a" clipPathUnits="userSpaceOnUse"><path d="M-1897.772 926.581h2272v-1872h-2272Z"/></clipPath></defs><path d="M767.72 646.654v64.401c0 39.613 32.114 71.722 71.727 71.722h154.067c11.144 0 20.179 9.034 20.179 20.185v168.6c0 43.584-35.334 78.917-78.916 78.917H110.223c-43.586 0-78.919-35.333-78.919-78.916V386.146c0-43.59 35.333-78.922 78.919-78.922h824.554c43.582 0 78.916 35.333 78.916 78.922v168.6c0 11.145-9.035 20.18-20.18 20.18H839.448c-39.613 0-71.728 32.115-71.728 71.728" style="fill:#4c3525;fill-opacity:1;fill-rule:nonzero;stroke:#fff;stroke-width:.0659445;stroke-opacity:1"/><path d="M866.306 710.627c-17.554 0-31.778-14.225-31.778-31.773 0-17.547 14.224-31.778 31.778-31.778 17.548 0 31.773 14.23 31.773 31.778s-14.225 31.773-31.773 31.773zm150.631-115.918h-177.22c-28.837 0-52.214 23.378-52.214 52.222v63.847c0 28.838 23.377 52.215 52.215 52.215h177.22c17.54 0 31.758-14.217 31.758-31.759V626.468c0-17.541-14.218-31.759-31.759-31.759" style="fill:#4c3525;fill-opacity:1;fill-rule:nonzero;stroke:none;stroke-width:.0659445"/><path d="M828.89 147.684 248.116 289.386H880.36V188.108c0-26.971-25.27-46.814-51.47-40.424" style="fill:#e0ae6e;fill-opacity:1;fill-rule:nonzero;stroke:#fff;stroke-width:.0659445;stroke-opacity:1"/><path d="M744.586 147.888 164.64 289.386 663.804 34.233c23.931-12.437 53.19.837 59.594 27.037l21.188 86.618" style="fill:#007a4d;fill-opacity:.733333;fill-rule:nonzero;stroke:#fff;stroke-width:.0659445;stroke-opacity:1"/><path d="m0 0 22.306 22.306L44.611 0Zm-15.669 60.284L6.642 37.969l-22.311-22.311Zm60.285 15.657-22.31-22.308L0 75.941Zm15.656-60.276L37.969 37.969l22.303 22.302Zm33.061-33.06L82.427-6.487v88.913l10.921 10.919c14.447-12.251 30.732-20.835 46.793-24.414 5.628-1.255 11.054-1.874 16.225-1.874 14.104 0 26.28 4.612 35.2 13.532 14.432 14.432 17.432 38.136 8.028 63.412-2.133 5.735-8.509 8.654-14.243 6.519-5.734-2.133-8.652-8.511-6.518-14.243 6.298-16.93 5.203-31.891-2.931-40.025-8.965-8.96-23.228-7.422-30.943-5.7-12.104 2.698-24.548 9.194-35.895 18.513l69.235 69.232c4.325 4.325 4.325 11.339 0 15.663-4.327 4.327-11.341 4.327-15.663 0l-69.228-69.227c-20.033 24.484-26.156 53.502-12.823 66.835 8.138 8.132 23.101 9.227 40.027 2.932 5.73-2.143 12.112.784 14.242 6.521 2.133 5.731-.786 12.108-6.52 14.241-25.27 9.405-48.979 6.403-63.41-8.028-22.353-22.354-16.375-64.011 12.746-98.238L66.769 98.094h-88.923l-10.918 10.918c12.252 14.449 20.834 30.735 24.414 46.795 4.675 20.969.536 39.233-11.658 51.426-14.428 14.43-38.14 17.43-63.413 8.027-5.733-2.133-8.652-8.51-6.519-14.244 2.132-5.732 8.508-8.652 14.245-6.519 16.927 6.298 31.889 5.203 40.024-2.929 8.962-8.963 7.42-23.234 5.699-30.943-2.697-12.104-9.192-24.548-18.512-35.895l-69.231 69.234c-4.327 4.328-11.341 4.328-15.664 0-4.324-4.325-4.324-11.339 0-15.664l69.227-69.228c-24.483-20.032-53.502-26.154-66.836-12.822-8.132 8.136-9.227 23.097-2.931 40.03 2.133 5.731-.786 12.108-6.521 14.24-5.726 2.131-12.106-.784-14.24-6.52-9.401-25.275-6.401-48.978 8.027-63.411 9.173-9.173 21.598-13.582 35.428-13.582 19.876 0 42.653 9.119 62.839 26.299l10.872-10.87V-6.495l-10.902-10.901c-34.226 29.117-75.88 35.095-98.235 12.747-14.432-14.432-17.432-38.138-8.027-63.414 2.133-5.732 8.507-8.651 14.243-6.518 5.733 2.133 8.651 8.511 6.518 14.242-6.298 16.93-5.203 31.893 2.929 40.026 13.331 13.33 42.353 7.209 66.835-12.822l-69.228-69.227c-4.326-4.324-4.326-11.337 0-15.663a11.041 11.041 0 0 1 7.832-3.245c2.835 0 5.67 1.082 7.831 3.245l69.228 69.227c20.028-24.484 26.151-53.499 12.82-66.833-8.137-8.132-23.098-9.223-40.029-2.93-5.725 2.132-12.104-.786-14.241-6.52-2.133-5.733.788-12.111 6.521-14.241 9.728-3.62 19.218-5.399 28.044-5.399 14.102 0 26.489 4.549 35.367 13.427C2.033-108.945-3.945-67.29-33.061-33.061l10.907 10.908h88.919L77.67-33.059c-29.117-34.225-35.096-75.884-12.746-98.234 8.876-8.879 21.26-13.43 35.365-13.428 8.822 0 18.322 1.781 28.046 5.401 5.734 2.133 8.652 8.51 6.519 14.243-2.133 5.731-8.51 8.652-14.243 6.517-16.924-6.3-31.888-5.203-40.025 2.929-13.333 13.335-7.209 42.354 12.822 66.836l69.228-69.228a11.032 11.032 0 0 1 7.83-3.245c2.836 0 5.671 1.081 7.833 3.245 4.325 4.326 4.325 11.338 0 15.664L109.07-33.131c24.485 20.027 53.502 26.147 66.832 12.819 8.134-8.134 9.229-23.097 2.932-40.028-2.133-5.733.786-12.11 6.52-14.241 5.729-2.14 12.111.784 14.242 6.519 9.401 25.275 6.399 48.979-8.028 63.413-22.349 22.35-64.006 16.374-98.235-12.746" clip-path="url(#a)" style="fill:#e6be8a;fill-opacity:1;fill-rule:nonzero;stroke:#fff;stroke-opacity:1;stroke-width:2.75246453;stroke-dasharray:none" transform="matrix(1.08993 0 0 -1.08993 315.241 693.405)"/></svg>